<?xml version="1.0" encoding="utf-8"?>
<!-- Svg Vector Icons : http://www.onlinewebfonts.com/icon -->
<!DOCTYPE svg PUBLIC "-//W3C//DTD SVG 1.1//EN" "http://www.w3.org/Graphics/SVG/1.1/DTD/svg11.dtd">
<svg version="1.1" xmlns="http://www.w3.org/2000/svg" xmlns:xlink="http://www.w3.org/1999/xlink" x="0px" y="0px" viewBox="0 0 1000 1000" enable-background="new 0 0 1000 1000" xml:space="preserve">
<metadata> Svg Vector Icons : http://www.onlinewebfonts.com/icon </metadata>
<g><g transform="translate(0.000000,511.000000) scale(0.100000,-0.100000)"><path fill="red" d="M3803.5,4355.3c-908.9-123.2-1736.9-527.6-2405.1-1172.7c-695.2-672-1105.3-1477-1265.1-2478.3c-44.3-271.5-44.3-914.7,0-1186.2C285.3-1437,664.7-2209.2,1298.2-2862C2132-3715,3193-4163.7,4385-4163.7c639.3,0,1222.8,130.9,1837,410.1c631.6,288.8,1217,415.9,1798.5,392.8c477.5-21.2,828-115.5,1247.8-331.2c267.7-138.7,325.4-150.2,458.3-84.7c196.4,94.4,233,360.1,73.2,510.3c-84.7,80.9-481.4,275.4-737.5,364c-348.5,119.4-631.6,165.6-1074.5,181l-389,11.5l115.5,144.4c379.4,475.6,687.5,1109.2,826.1,1696.5c333.1,1421.1-92.4,2942.3-1109.2,3970.6C6740,3802.6,5885.1,4230.1,4912.6,4357.2C4633.4,4393.8,4080.7,4391.9,3803.5,4355.3z M4621.8,3303.9c329.3-82.8,614.3-408.2,670.1-764.5c69.3-456.4-234.9-912.7-689.4-1032.1c-523.8-134.8-1053.3,217.6-1145.7,764.5c-71.3,419.8,192.6,858.8,602.7,1010.9C4227.1,3344.3,4435.1,3352,4621.8,3303.9z M2465.1,1757.6c163.7-44.3,292.7-119.4,425.6-250.3C3345.2,1060.5,3220,307.6,2646.2,26.5c-668.2-327.4-1426.9,223.4-1326.7,959C1394.5,1524.6,1941.4,1892.4,2465.1,1757.6z M6751.6,1751.8c568-157.9,849.2-791.4,585.4-1315.2c-61.6-121.3-236.8-310-346.6-375.5C6520.5-214.2,5919.7-39,5682.9,442.4c-182.9,367.8-115.5,781.8,169.5,1064.9C6102.7,1755.7,6424.2,1842.3,6751.6,1751.8z M4510.2,455.9C4633.4,409.7,4747,246,4747,111.2c0-86.7-57.8-208-127.1-273.5c-196.4-182.9-535.3-82.8-606.6,181c-61.6,229.2,115.5,458.3,352.4,458.3C4415.8,477.1,4479.4,467.4,4510.2,455.9z M3354.8-776.5c236.8-80.9,427.5-254.2,539.2-491c59.7-125.2,71.2-169.5,78.9-327.4c11.6-225.3-27-383.2-130.9-543c-327.4-504.5-997.5-593.1-1423-186.8c-554.6,527.6-277.3,1446.2,479.5,1588.6C3017.8-713,3225.8-730.3,3354.8-776.5z M5856.2-738c437.1-79,758.7-464.1,758.7-908.9c0-279.2-86.7-483.3-286.9-675.9c-362-342.8-912.7-344.7-1270.9-1.9c-367.8,350.5-390.9,916.6-52,1294C5222.7-790,5540.4-680.2,5856.2-738z"/></g></g>
</svg>